<svg xmlns="http://www.w3.org/2000/svg" version="1.1" xmlns:xlink="http://www.w3.org/1999/xlink" xmlns:svgjs="http://svgjs.dev/svgjs" width="1440" height="5000" preserveAspectRatio="none" viewBox="0 0 1440 5000"><g mask="url(&quot;#SvgjsMask1068&quot;)" fill="none"><path d="M299.407,4275.289C371.736,4276.873,439.461,4233.876,471.895,4169.208C501.597,4109.989,480.453,4041.505,444.606,3985.791C412.114,3935.292,359.44,3902.52,299.407,3901.128C236.737,3899.675,174.825,3925.334,142.062,3978.778C107.86,4034.569,108.852,4104.123,139.527,4161.928C172.349,4223.78,229.403,4273.756,299.407,4275.289" fill="rgba(254, 204, 210, 0.46)" class="triangle-float1"></path><path d="M895.69 3722.75 a390.72 390.72 0 1 0 781.44 0 a390.72 390.72 0 1 0 -781.44 0z" fill="rgba(254, 204, 210, 0.46)" class="triangle-float2"></path><path d="M-163.1 3553.92 a368.91 368.91 0 1 0 737.82 0 a368.91 368.91 0 1 0 -737.82 0z" fill="rgba(254, 204, 210, 0.46)" class="triangle-float2"></path><path d="M705.739,320.603C790.568,317.568,847.255,240.299,884.387,163.968C916.366,98.231,915.08,24.286,881.464,-40.629C844.513,-111.984,785.89,-175.294,705.739,-181.015C616.114,-187.412,524.575,-147.518,480.435,-69.254C436.923,7.896,459.163,100.909,503.483,177.598C547.764,254.22,617.299,323.768,705.739,320.603" fill="rgba(254, 204, 210, 0.46)" class="triangle-float3"></path><path d="M605.57 4704.35 a347.66 347.66 0 1 0 695.32 0 a347.66 347.66 0 1 0 -695.32 0z" fill="rgba(254, 204, 210, 0.46)" class="triangle-float2"></path><path d="M1009.82 3415.2 a287.71 287.71 0 1 0 575.42 0 a287.71 287.71 0 1 0 -575.42 0z" fill="rgba(254, 204, 210, 0.46)" class="triangle-float3"></path><path d="M345.486,1017.829C441.931,1012.565,503.613,925.743,550.029,841.038C594.074,760.661,625.505,667.07,581.857,586.477C536.513,502.753,440.605,459.116,345.486,463.368C257.094,467.319,189.413,530.707,143.086,606.09C93.804,686.281,56.707,781.229,98.23,865.699C143.985,958.778,241.923,1023.482,345.486,1017.829" fill="rgba(254, 204, 210, 0.46)" class="triangle-float2"></path><path d="M390.18 529.65 a377.74 377.74 0 1 0 755.48 0 a377.74 377.74 0 1 0 -755.48 0z" fill="rgba(254, 204, 210, 0.46)" class="triangle-float3"></path><path d="M345.841,1736.23C504.511,1740.147,673.103,1702.717,757.01,1567.992C844.917,1426.845,825.456,1245.686,740.305,1102.86C657.265,963.575,508,879.022,345.841,878.325C182.436,877.623,25.647,957.064,-54.539,1099.444C-133.372,1239.421,-117.115,1412.523,-31.605,1548.523C48.558,1676.019,195.284,1732.513,345.841,1736.23" fill="rgba(254, 204, 210, 0.46)" class="triangle-float2"></path><path d="M898.644,5069.843C1007.728,5072.66,1118.566,5031.541,1173.913,4937.499C1229.949,4842.287,1218.542,4721.268,1158.298,4628.661C1103.028,4543.7,999.979,4512.222,898.644,4514.354C801.57,4516.396,708.085,4556.48,657.245,4639.201C603.953,4725.911,597.177,4835.111,646.943,4923.891C697.771,5014.565,794.731,5067.16,898.644,5069.843" fill="rgba(254, 204, 210, 0.46)" class="triangle-float3"></path><path d="M-264.17 3307.09 a373.67 373.67 0 1 0 747.34 0 a373.67 373.67 0 1 0 -747.34 0z" fill="rgba(254, 204, 210, 0.46)" class="triangle-float2"></path><path d="M-119.84 3999.03 a455.49 455.49 0 1 0 910.98 0 a455.49 455.49 0 1 0 -910.98 0z" fill="rgba(254, 204, 210, 0.46)" class="triangle-float1"></path><path d="M1129.38 1072.08 a309.04 309.04 0 1 0 618.08 0 a309.04 309.04 0 1 0 -618.08 0z" fill="rgba(254, 204, 210, 0.46)" class="triangle-float2"></path><path d="M211.06 1601.49 a308.95 308.95 0 1 0 617.9 0 a308.95 308.95 0 1 0 -617.9 0z" fill="rgba(254, 204, 210, 0.46)" class="triangle-float1"></path><path d="M1115.348,2896.965C1187.466,2899.053,1269.248,2895.329,1307.218,2833.98C1346.483,2770.538,1318.827,2691.863,1282.688,2626.59C1245.025,2558.563,1193.105,2487.491,1115.348,2487.427C1037.523,2487.363,983.247,2557.169,947.531,2626.314C915.203,2688.899,904.685,2763.532,941.805,2823.399C977.292,2880.632,1048.034,2895.016,1115.348,2896.965" fill="rgba(254, 204, 210, 0.46)" class="triangle-float3"></path><path d="M737.85 863.51 a325.52 325.52 0 1 0 651.04 0 a325.52 325.52 0 1 0 -651.04 0z" fill="rgba(254, 204, 210, 0.46)" class="triangle-float3"></path><path d="M899.422,3510.908C970.688,3509.647,1043.577,3489.548,1081.4,3429.134C1121.371,3365.29,1122.423,3282.248,1082.616,3218.302C1044.759,3157.488,970.995,3139.764,899.422,3136.801C820.426,3133.531,730.887,3135.588,687.931,3201.965C642.413,3272.301,658.613,3366.644,705.939,3435.777C747.827,3496.966,825.281,3512.22,899.422,3510.908" fill="rgba(254, 204, 210, 0.46)" class="triangle-float3"></path><path d="M210.729,3241.231C294.252,3243.573,378.406,3207.096,418.451,3133.761C457.177,3062.842,431.634,2979.59,392.073,2909.134C351.425,2836.741,293.7,2766.778,210.729,2763.813C123.689,2760.702,45.953,2818.21,5.452,2895.316C-32.419,2967.416,-19.316,3052.616,22.246,3122.653C62.846,3191.069,131.204,3239.002,210.729,3241.231" fill="rgba(254, 204, 210, 0.46)" class="triangle-float1"></path><path d="M370.24 569.71 a283.11 283.11 0 1 0 566.22 0 a283.11 283.11 0 1 0 -566.22 0z" fill="rgba(254, 204, 210, 0.46)" class="triangle-float1"></path><path d="M-16.79 270.43 a253.62 253.62 0 1 0 507.24 0 a253.62 253.62 0 1 0 -507.24 0z" fill="rgba(254, 204, 210, 0.46)" class="triangle-float1"></path></g><defs><mask id="SvgjsMask1068"><rect width="1440" height="5000" fill="#ffffff"></rect></mask><style>
                @keyframes float1 {
                    0%{transform: translate(0, 0)}
                    50%{transform: translate(-10px, 0)}
                    100%{transform: translate(0, 0)}
                }

                .triangle-float1 {
                    animation: float1 5s infinite;
                }

                @keyframes float2 {
                    0%{transform: translate(0, 0)}
                    50%{transform: translate(-5px, -5px)}
                    100%{transform: translate(0, 0)}
                }

                .triangle-float2 {
                    animation: float2 4s infinite;
                }

                @keyframes float3 {
                    0%{transform: translate(0, 0)}
                    50%{transform: translate(0, -10px)}
                    100%{transform: translate(0, 0)}
                }

                .triangle-float3 {
                    animation: float3 6s infinite;
                }
            </style></defs></svg>